<svg xmlns="http://www.w3.org/2000/svg" viewBox="0 0 80 80" width="25" height="25"><path fill="#8bb7f0" d="M40 2a38 38 0 100 76 38 38 0 100-76z"/><path fill="#fff" d="M77.784 44.013c.006-.054.016-.106.021-.159-.005.053-.015.106-.021.159zm-75.59-.173c.007.073.021.144.029.217-.008-.072-.022-.145-.029-.217zm42.713 6.631h9.835l1.544-9.989H44.907v-5.46c0-4.149 1.356-7.83 5.239-7.83h6.238v-8.719C55.287 18.325 52.97 18 48.59 18c-9.146 0-14.507 4.831-14.507 15.835v6.647h-9.402v9.989h9.402V77.4c1.858.279 3.744.47 5.68.47 1.749 0 3.458-.159 5.144-.388V50.471z"/><path fill="#4e7ab5" d="M40 3c20.402 0 37 16.598 37 37S60.402 77 40 77 3 60.402 3 40 19.598 3 40 3m0-1C19.013 2 2 19.013 2 40s17.013 38 38 38 38-17.013 38-38S60.987 2 40 2z"/></svg>